%FSLAX34Y34*%
%MOMM*%
%LNSOLDERMASK_TOP*%
G71*
G01*
%ADD10C, 5.10*%
%ADD11C, 2.40*%
%ADD12C, 3.14*%
%ADD13C, 2.60*%
%ADD14C, 2.63*%
%ADD15C, 2.51*%
%ADD16C, 2.64*%
%ADD17C, 2.40*%
%ADD18C, 2.60*%
%ADD19C, 2.20*%
%ADD20C, 2.10*%
%ADD21C, 2.64*%
%ADD22C, 2.30*%
%ADD23C, 3.60*%
%ADD24C, 4.00*%
%ADD25C, 2.60*%
%ADD26C, 2.80*%
%ADD27C, 2.00*%
%LPD*%
X88900Y-107950D02*
G54D10*
D03*
X88900Y-742950D02*
G54D10*
D03*
X1409700Y-107950D02*
G54D10*
D03*
X1409700Y-742950D02*
G54D10*
D03*
G36*
X83600Y-312200D02*
X119600Y-312200D01*
X119600Y-348200D01*
X83600Y-348200D01*
X83600Y-312200D01*
G37*
G36*
X83600Y-483650D02*
X119600Y-483650D01*
X119600Y-519650D01*
X83600Y-519650D01*
X83600Y-483650D01*
G37*
G36*
X483650Y-483650D02*
X519650Y-483650D01*
X519650Y-519650D01*
X483650Y-519650D01*
X483650Y-483650D01*
G37*
G36*
X483650Y-312200D02*
X519650Y-312200D01*
X519650Y-348200D01*
X483650Y-348200D01*
X483650Y-312200D01*
G37*
G36*
X724600Y-451550D02*
X748600Y-451550D01*
X748600Y-475550D01*
X724600Y-475550D01*
X724600Y-451550D01*
G37*
X762000Y-463550D02*
G54D11*
D03*
X787400Y-463550D02*
G54D11*
D03*
X812800Y-463550D02*
G54D11*
D03*
X838200Y-463550D02*
G54D11*
D03*
X863600Y-463550D02*
G54D11*
D03*
X889000Y-463550D02*
G54D11*
D03*
X914400Y-463550D02*
G54D11*
D03*
X939800Y-463550D02*
G54D11*
D03*
X965200Y-463550D02*
G54D11*
D03*
X990600Y-463550D02*
G54D11*
D03*
X1016000Y-463550D02*
G54D11*
D03*
X1041400Y-463550D02*
G54D11*
D03*
X1066800Y-463550D02*
G54D11*
D03*
X1066800Y-387350D02*
G54D11*
D03*
X1041400Y-387350D02*
G54D11*
D03*
X1016000Y-387350D02*
G54D11*
D03*
X990600Y-387350D02*
G54D11*
D03*
X965200Y-387350D02*
G54D11*
D03*
X939800Y-387350D02*
G54D11*
D03*
X914400Y-387350D02*
G54D11*
D03*
X889000Y-387350D02*
G54D11*
D03*
X863600Y-387350D02*
G54D11*
D03*
X838200Y-387350D02*
G54D11*
D03*
X812800Y-387350D02*
G54D11*
D03*
X787400Y-387350D02*
G54D11*
D03*
X762000Y-387350D02*
G54D11*
D03*
X736600Y-387350D02*
G54D11*
D03*
X215900Y-755650D02*
G54D12*
D03*
X165100Y-755650D02*
G54D12*
D03*
X165100Y-95250D02*
G54D12*
D03*
X215900Y-95250D02*
G54D12*
D03*
X304800Y-95250D02*
G54D12*
D03*
X355600Y-95250D02*
G54D12*
D03*
X1295400Y-755650D02*
G54D12*
D03*
X1244600Y-755650D02*
G54D12*
D03*
X1346200Y-755650D02*
G54D12*
D03*
X1143000Y-755650D02*
G54D12*
D03*
X1092200Y-755650D02*
G54D12*
D03*
X1193800Y-755650D02*
G54D12*
D03*
X990600Y-755650D02*
G54D12*
D03*
X939800Y-755650D02*
G54D12*
D03*
X1041400Y-755650D02*
G54D12*
D03*
X838200Y-755650D02*
G54D12*
D03*
X787400Y-755650D02*
G54D12*
D03*
X889000Y-755650D02*
G54D12*
D03*
X584200Y-755650D02*
G54D12*
D03*
X533400Y-755650D02*
G54D12*
D03*
X355600Y-755650D02*
G54D12*
D03*
X304800Y-755650D02*
G54D12*
D03*
X133320Y-649319D02*
G54D13*
D03*
X133320Y-573119D02*
G54D13*
D03*
X368300Y-476250D02*
G54D14*
D03*
X342900Y-476250D02*
G54D14*
D03*
X317500Y-476250D02*
G54D14*
D03*
X292100Y-476250D02*
G54D14*
D03*
X368300Y-400050D02*
G54D14*
D03*
X342900Y-400050D02*
G54D14*
D03*
X317500Y-400050D02*
G54D14*
D03*
X292100Y-400050D02*
G54D14*
D03*
X463550Y-476250D02*
G54D15*
D03*
X463550Y-371475D02*
G54D16*
D03*
X304800Y-527050D02*
G54D13*
D03*
X381000Y-527050D02*
G54D13*
D03*
X304800Y-692150D02*
G54D17*
D03*
X355600Y-692150D02*
G54D17*
D03*
X330200Y-590550D02*
G54D17*
D03*
X381000Y-590550D02*
G54D17*
D03*
X381000Y-666750D02*
G54D17*
D03*
X381000Y-615950D02*
G54D17*
D03*
X355600Y-615950D02*
G54D17*
D03*
X355600Y-666750D02*
G54D17*
D03*
G36*
X394000Y-565450D02*
X368000Y-565450D01*
X368000Y-539450D01*
X394000Y-539450D01*
X394000Y-565450D01*
G37*
X355600Y-552450D02*
G54D18*
D03*
X330200Y-552450D02*
G54D18*
D03*
X450850Y-546100D02*
G54D17*
D03*
X501650Y-546100D02*
G54D17*
D03*
X495300Y-615950D02*
G54D17*
D03*
X455300Y-615950D02*
G54D17*
D03*
G36*
X749600Y-602950D02*
X749600Y-628950D01*
X723600Y-628950D01*
X723600Y-602950D01*
X749600Y-602950D01*
G37*
X736600Y-641350D02*
G54D18*
D03*
X736600Y-666750D02*
G54D18*
D03*
G36*
X800400Y-602950D02*
X800400Y-628950D01*
X774400Y-628950D01*
X774400Y-602950D01*
X800400Y-602950D01*
G37*
X787400Y-641350D02*
G54D18*
D03*
X787400Y-666750D02*
G54D18*
D03*
G36*
X902000Y-602950D02*
X902000Y-628950D01*
X876000Y-628950D01*
X876000Y-602950D01*
X902000Y-602950D01*
G37*
X889000Y-641350D02*
G54D18*
D03*
X889000Y-666750D02*
G54D18*
D03*
G36*
X952800Y-602950D02*
X952800Y-628950D01*
X926800Y-628950D01*
X926800Y-602950D01*
X952800Y-602950D01*
G37*
X939800Y-641350D02*
G54D18*
D03*
X939800Y-666750D02*
G54D18*
D03*
G36*
X1054400Y-602950D02*
X1054400Y-628950D01*
X1028400Y-628950D01*
X1028400Y-602950D01*
X1054400Y-602950D01*
G37*
X1041400Y-641350D02*
G54D18*
D03*
X1041400Y-666750D02*
G54D18*
D03*
G36*
X1105200Y-602950D02*
X1105200Y-628950D01*
X1079200Y-628950D01*
X1079200Y-602950D01*
X1105200Y-602950D01*
G37*
X1092200Y-641350D02*
G54D18*
D03*
X1092200Y-666750D02*
G54D18*
D03*
X698500Y-692150D02*
G54D13*
D03*
X698500Y-615950D02*
G54D13*
D03*
X812800Y-615950D02*
G54D13*
D03*
X812800Y-692150D02*
G54D13*
D03*
X863600Y-615950D02*
G54D13*
D03*
X863600Y-692150D02*
G54D13*
D03*
X977900Y-615950D02*
G54D13*
D03*
X977900Y-692150D02*
G54D13*
D03*
X1003300Y-615950D02*
G54D13*
D03*
X1003300Y-692150D02*
G54D13*
D03*
X1130300Y-615950D02*
G54D13*
D03*
X1130300Y-692150D02*
G54D13*
D03*
X622300Y-628650D02*
G54D17*
D03*
X622300Y-679450D02*
G54D17*
D03*
X584200Y-628650D02*
G54D17*
D03*
X584200Y-679450D02*
G54D17*
D03*
X838200Y-565150D02*
G54D17*
D03*
X889000Y-565150D02*
G54D17*
D03*
X914400Y-565150D02*
G54D17*
D03*
X965200Y-565150D02*
G54D17*
D03*
X965200Y-514350D02*
G54D13*
D03*
X916800Y-514350D02*
G54D13*
D03*
X1041400Y-565150D02*
G54D17*
D03*
X1092200Y-565150D02*
G54D17*
D03*
X1060450Y-527050D02*
G54D17*
D03*
X1111250Y-527050D02*
G54D17*
D03*
X1295400Y-95250D02*
G54D12*
D03*
X1346200Y-95250D02*
G54D12*
D03*
X1244600Y-95250D02*
G54D12*
D03*
X1143000Y-95250D02*
G54D12*
D03*
X1193800Y-95250D02*
G54D12*
D03*
X1092200Y-95250D02*
G54D12*
D03*
X990600Y-95250D02*
G54D12*
D03*
X1041400Y-95250D02*
G54D12*
D03*
X939800Y-95250D02*
G54D12*
D03*
X838200Y-95250D02*
G54D12*
D03*
X889000Y-95250D02*
G54D12*
D03*
X787400Y-95250D02*
G54D12*
D03*
X533400Y-95250D02*
G54D12*
D03*
X584200Y-95250D02*
G54D12*
D03*
X1346130Y-368380D02*
G54D19*
D03*
X1346130Y-419180D02*
G54D19*
D03*
G36*
X1079200Y-222550D02*
X1079200Y-196550D01*
X1105200Y-196550D01*
X1105200Y-222550D01*
X1079200Y-222550D01*
G37*
X1092200Y-184150D02*
G54D18*
D03*
X1092200Y-158750D02*
G54D18*
D03*
G36*
X1028400Y-222550D02*
X1028400Y-196550D01*
X1054400Y-196550D01*
X1054400Y-222550D01*
X1028400Y-222550D01*
G37*
X1041400Y-184150D02*
G54D18*
D03*
X1041400Y-158750D02*
G54D18*
D03*
G36*
X926800Y-222550D02*
X926800Y-196550D01*
X952800Y-196550D01*
X952800Y-222550D01*
X926800Y-222550D01*
G37*
X939800Y-184150D02*
G54D18*
D03*
X939800Y-158750D02*
G54D18*
D03*
G36*
X876000Y-222550D02*
X876000Y-196550D01*
X902000Y-196550D01*
X902000Y-222550D01*
X876000Y-222550D01*
G37*
X889000Y-184150D02*
G54D18*
D03*
X889000Y-158750D02*
G54D18*
D03*
G36*
X774400Y-222550D02*
X774400Y-196550D01*
X800400Y-196550D01*
X800400Y-222550D01*
X774400Y-222550D01*
G37*
X787400Y-184150D02*
G54D18*
D03*
X787400Y-158750D02*
G54D18*
D03*
X1117600Y-152400D02*
G54D13*
D03*
X1117600Y-228600D02*
G54D13*
D03*
X1143000Y-152400D02*
G54D13*
D03*
X1143000Y-228600D02*
G54D13*
D03*
X1066800Y-152400D02*
G54D13*
D03*
X1066800Y-228600D02*
G54D13*
D03*
X1016000Y-152400D02*
G54D13*
D03*
X1016000Y-228600D02*
G54D13*
D03*
X965200Y-152400D02*
G54D13*
D03*
X965200Y-228600D02*
G54D13*
D03*
X990600Y-152400D02*
G54D13*
D03*
X990600Y-228600D02*
G54D13*
D03*
X914400Y-152400D02*
G54D13*
D03*
X914400Y-228600D02*
G54D13*
D03*
X863600Y-152400D02*
G54D13*
D03*
X863600Y-228600D02*
G54D13*
D03*
X838200Y-152400D02*
G54D13*
D03*
X838200Y-228600D02*
G54D13*
D03*
X812800Y-152400D02*
G54D13*
D03*
X812800Y-228600D02*
G54D13*
D03*
G36*
X533100Y-145750D02*
X559100Y-145750D01*
X559100Y-171750D01*
X533100Y-171750D01*
X533100Y-145750D01*
G37*
X571500Y-158750D02*
G54D18*
D03*
X596900Y-158750D02*
G54D18*
D03*
G36*
X533100Y-171150D02*
X559100Y-171150D01*
X559100Y-197150D01*
X533100Y-197150D01*
X533100Y-171150D01*
G37*
X571500Y-184150D02*
G54D18*
D03*
X596900Y-184150D02*
G54D18*
D03*
G36*
X533100Y-196550D02*
X559100Y-196550D01*
X559100Y-222550D01*
X533100Y-222550D01*
X533100Y-196550D01*
G37*
X571500Y-209550D02*
G54D18*
D03*
X596900Y-209550D02*
G54D18*
D03*
G36*
X533100Y-221950D02*
X559100Y-221950D01*
X559100Y-247950D01*
X533100Y-247950D01*
X533100Y-221950D01*
G37*
X571500Y-234950D02*
G54D18*
D03*
X596900Y-234950D02*
G54D18*
D03*
G36*
X533100Y-247350D02*
X559100Y-247350D01*
X559100Y-273350D01*
X533100Y-273350D01*
X533100Y-247350D01*
G37*
X571500Y-260350D02*
G54D18*
D03*
X596900Y-260350D02*
G54D18*
D03*
X622300Y-158750D02*
G54D13*
D03*
X698500Y-158750D02*
G54D13*
D03*
X622300Y-184150D02*
G54D13*
D03*
X698500Y-184150D02*
G54D13*
D03*
X622300Y-209550D02*
G54D13*
D03*
X698500Y-209550D02*
G54D13*
D03*
X622300Y-234950D02*
G54D13*
D03*
X698500Y-234950D02*
G54D13*
D03*
X622300Y-260350D02*
G54D13*
D03*
X698500Y-260350D02*
G54D13*
D03*
X1143000Y-247650D02*
G54D13*
D03*
X1143000Y-323850D02*
G54D13*
D03*
X1117600Y-279400D02*
G54D17*
D03*
X1117600Y-330200D02*
G54D17*
D03*
X812800Y-336550D02*
G54D17*
D03*
X812800Y-361950D02*
G54D17*
D03*
X787400Y-361950D02*
G54D17*
D03*
X787400Y-336550D02*
G54D17*
D03*
X609600Y-336550D02*
G54D13*
D03*
X660400Y-336550D02*
G54D13*
D03*
X595312Y-384175D02*
G54D20*
D03*
X646112Y-384175D02*
G54D20*
D03*
X596900Y-361950D02*
G54D19*
D03*
X647700Y-361950D02*
G54D19*
D03*
X584200Y-406400D02*
G54D17*
D03*
X635000Y-406400D02*
G54D17*
D03*
X584200Y-431800D02*
G54D17*
D03*
X635000Y-431800D02*
G54D17*
D03*
X584200Y-457200D02*
G54D17*
D03*
X635000Y-457200D02*
G54D17*
D03*
X952500Y-425450D02*
G54D15*
D03*
X847725Y-425450D02*
G54D16*
D03*
X584200Y-476250D02*
G54D13*
D03*
X501650Y-476250D02*
G54D13*
D03*
X889000Y-355600D02*
G54D17*
D03*
X939800Y-355600D02*
G54D17*
D03*
X133320Y-623919D02*
G54D13*
D03*
X635000Y-95250D02*
G54D12*
D03*
X685800Y-95250D02*
G54D12*
D03*
X736600Y-755650D02*
G54D12*
D03*
X685800Y-755650D02*
G54D12*
D03*
X787400Y-495300D02*
G54D21*
D03*
X762000Y-495300D02*
G54D21*
D03*
X736442Y-495342D02*
G54D21*
D03*
X704850Y-450850D02*
G54D17*
D03*
X704850Y-501650D02*
G54D17*
D03*
X679450Y-501650D02*
G54D21*
D03*
X654050Y-501650D02*
G54D21*
D03*
X1098550Y-501650D02*
G54D22*
D03*
X1174750Y-501650D02*
G54D22*
D03*
G36*
X1142700Y-450550D02*
X1168700Y-450550D01*
X1168700Y-476550D01*
X1142700Y-476550D01*
X1142700Y-450550D01*
G37*
X1181100Y-463550D02*
G54D18*
D03*
X1206500Y-463550D02*
G54D18*
D03*
X190088Y-195900D02*
G54D23*
D03*
X399638Y-195900D02*
G54D23*
D03*
X228600Y-279400D02*
G54D24*
D03*
X178600Y-279400D02*
G54D24*
D03*
X128600Y-279400D02*
G54D24*
D03*
X78600Y-279400D02*
G54D24*
D03*
X101600Y-368300D02*
G54D25*
D03*
X196850Y-368300D02*
G54D25*
D03*
X622300Y-501650D02*
G54D17*
D03*
X622300Y-476250D02*
G54D17*
D03*
X1403350Y-260350D02*
G54D26*
D03*
X1403350Y-234950D02*
G54D26*
D03*
X1403350Y-209550D02*
G54D26*
D03*
X1187450Y-260350D02*
G54D26*
D03*
X1187450Y-234950D02*
G54D26*
D03*
X1187450Y-209550D02*
G54D26*
D03*
X1308100Y-260350D02*
G54D26*
D03*
X1308100Y-234950D02*
G54D26*
D03*
X1308100Y-209550D02*
G54D26*
D03*
X1225550Y-158750D02*
G54D17*
D03*
X1174750Y-158750D02*
G54D17*
D03*
X1263650Y-158750D02*
G54D17*
D03*
X1314450Y-158750D02*
G54D17*
D03*
X1346200Y-158750D02*
G54D17*
D03*
X1397000Y-158750D02*
G54D17*
D03*
X1219200Y-285750D02*
G54D13*
D03*
X1219200Y-361950D02*
G54D13*
D03*
X1244600Y-342900D02*
G54D13*
D03*
X1244600Y-266700D02*
G54D13*
D03*
X1184064Y-297250D02*
G54D27*
D03*
X1196763Y-309950D02*
G54D27*
D03*
X1184063Y-322650D02*
G54D27*
D03*
X1279314Y-297249D02*
G54D27*
D03*
X1292014Y-309950D02*
G54D27*
D03*
X1279314Y-322650D02*
G54D27*
D03*
X698500Y-285750D02*
G54D19*
D03*
X622300Y-285750D02*
G54D19*
D03*
X571500Y-285750D02*
G54D19*
D03*
X1320800Y-374650D02*
G54D13*
D03*
X1320800Y-298450D02*
G54D13*
D03*
X1346200Y-342900D02*
G54D13*
D03*
X1346200Y-266700D02*
G54D13*
D03*
X1399964Y-297249D02*
G54D27*
D03*
X1412664Y-309950D02*
G54D27*
D03*
X1399964Y-322650D02*
G54D27*
D03*
X1371600Y-374650D02*
G54D13*
D03*
X1371600Y-298450D02*
G54D13*
D03*
X1416050Y-419100D02*
G54D13*
D03*
X1416050Y-342900D02*
G54D13*
D03*
X1174750Y-603250D02*
G54D26*
D03*
X1174750Y-628650D02*
G54D26*
D03*
X1174750Y-654050D02*
G54D26*
D03*
X1397000Y-603250D02*
G54D26*
D03*
X1397000Y-628650D02*
G54D26*
D03*
X1397000Y-654050D02*
G54D26*
D03*
X1308100Y-603250D02*
G54D26*
D03*
X1308100Y-628650D02*
G54D26*
D03*
X1308100Y-654050D02*
G54D26*
D03*
X1212850Y-692150D02*
G54D17*
D03*
X1162050Y-692150D02*
G54D17*
D03*
X1250950Y-692150D02*
G54D17*
D03*
X1301750Y-692150D02*
G54D17*
D03*
X1346200Y-692150D02*
G54D17*
D03*
X1397000Y-692150D02*
G54D17*
D03*
X1174750Y-558800D02*
G54D27*
D03*
X1162050Y-546100D02*
G54D27*
D03*
X1174750Y-533400D02*
G54D27*
D03*
X1314450Y-558800D02*
G54D27*
D03*
X1301750Y-546100D02*
G54D27*
D03*
X1314450Y-533400D02*
G54D27*
D03*
X1409700Y-558800D02*
G54D27*
D03*
X1397000Y-546100D02*
G54D27*
D03*
X1409700Y-533400D02*
G54D27*
D03*
X1206500Y-565150D02*
G54D13*
D03*
X1206500Y-488950D02*
G54D13*
D03*
X1358900Y-565150D02*
G54D13*
D03*
X1358900Y-488950D02*
G54D13*
D03*
X1130300Y-476250D02*
G54D13*
D03*
X1130300Y-400050D02*
G54D13*
D03*
X1238250Y-565150D02*
G54D13*
D03*
X1238250Y-488950D02*
G54D13*
D03*
X1270000Y-565150D02*
G54D13*
D03*
X1270000Y-488950D02*
G54D13*
D03*
X1365250Y-444500D02*
G54D13*
D03*
X1289050Y-444500D02*
G54D13*
D03*
X469900Y-285750D02*
G54D19*
D03*
X1408130Y-455675D02*
G54D17*
D03*
X1408130Y-506475D02*
G54D17*
D03*
X406400Y-279400D02*
G54D19*
D03*
X444500Y-279400D02*
G54D19*
D03*
X425450Y-298450D02*
G54D19*
D03*
X222250Y-304800D02*
G54D19*
D03*
X317500Y-304800D02*
G54D19*
D03*
X323850Y-260350D02*
G54D17*
D03*
X374650Y-260350D02*
G54D17*
D03*
X539750Y-336550D02*
G54D13*
D03*
X539750Y-412750D02*
G54D13*
D03*
M02*
