%FSLAX34Y34*%
%MOMM*%
%LNCOPPER_TOP*%
G71*
G01*
%ADD10C, 4.50*%
%ADD11C, 1.80*%
%ADD12C, 2.54*%
%ADD13C, 2.00*%
%ADD14C, 2.03*%
%ADD15C, 1.91*%
%ADD16C, 2.04*%
%ADD17C, 1.80*%
%ADD18C, 2.00*%
%ADD19C, 1.60*%
%ADD20C, 1.50*%
%ADD21C, 2.04*%
%ADD22C, 1.70*%
%ADD23C, 3.00*%
%ADD24C, 3.40*%
%ADD25C, 2.00*%
%ADD26C, 2.20*%
%ADD27C, 1.40*%
%LPD*%
X88900Y-107950D02*
G54D10*
D03*
X88900Y-742950D02*
G54D10*
D03*
X1409700Y-107950D02*
G54D10*
D03*
X1409700Y-742950D02*
G54D10*
D03*
G36*
X86600Y-315200D02*
X116600Y-315200D01*
X116600Y-345200D01*
X86600Y-345200D01*
X86600Y-315200D01*
G37*
G36*
X86600Y-486650D02*
X116600Y-486650D01*
X116600Y-516650D01*
X86600Y-516650D01*
X86600Y-486650D01*
G37*
G36*
X486650Y-486650D02*
X516650Y-486650D01*
X516650Y-516650D01*
X486650Y-516650D01*
X486650Y-486650D01*
G37*
G36*
X486650Y-315200D02*
X516650Y-315200D01*
X516650Y-345200D01*
X486650Y-345200D01*
X486650Y-315200D01*
G37*
G36*
X727600Y-454550D02*
X745600Y-454550D01*
X745600Y-472550D01*
X727600Y-472550D01*
X727600Y-454550D01*
G37*
X762000Y-463550D02*
G54D11*
D03*
X787400Y-463550D02*
G54D11*
D03*
X812800Y-463550D02*
G54D11*
D03*
X838200Y-463550D02*
G54D11*
D03*
X863600Y-463550D02*
G54D11*
D03*
X889000Y-463550D02*
G54D11*
D03*
X914400Y-463550D02*
G54D11*
D03*
X939800Y-463550D02*
G54D11*
D03*
X965200Y-463550D02*
G54D11*
D03*
X990600Y-463550D02*
G54D11*
D03*
X1016000Y-463550D02*
G54D11*
D03*
X1041400Y-463550D02*
G54D11*
D03*
X1066800Y-463550D02*
G54D11*
D03*
X1066800Y-387350D02*
G54D11*
D03*
X1041400Y-387350D02*
G54D11*
D03*
X1016000Y-387350D02*
G54D11*
D03*
X990600Y-387350D02*
G54D11*
D03*
X965200Y-387350D02*
G54D11*
D03*
X939800Y-387350D02*
G54D11*
D03*
X914400Y-387350D02*
G54D11*
D03*
X889000Y-387350D02*
G54D11*
D03*
X863600Y-387350D02*
G54D11*
D03*
X838200Y-387350D02*
G54D11*
D03*
X812800Y-387350D02*
G54D11*
D03*
X787400Y-387350D02*
G54D11*
D03*
X762000Y-387350D02*
G54D11*
D03*
X736600Y-387350D02*
G54D11*
D03*
X215900Y-755650D02*
G54D12*
D03*
X165100Y-755650D02*
G54D12*
D03*
X165100Y-95250D02*
G54D12*
D03*
X215900Y-95250D02*
G54D12*
D03*
X304800Y-95250D02*
G54D12*
D03*
X355600Y-95250D02*
G54D12*
D03*
X1295400Y-755650D02*
G54D12*
D03*
X1244600Y-755650D02*
G54D12*
D03*
X1346200Y-755650D02*
G54D12*
D03*
X1143000Y-755650D02*
G54D12*
D03*
X1092200Y-755650D02*
G54D12*
D03*
X1193800Y-755650D02*
G54D12*
D03*
X990600Y-755650D02*
G54D12*
D03*
X939800Y-755650D02*
G54D12*
D03*
X1041400Y-755650D02*
G54D12*
D03*
X838200Y-755650D02*
G54D12*
D03*
X787400Y-755650D02*
G54D12*
D03*
X889000Y-755650D02*
G54D12*
D03*
X584200Y-755650D02*
G54D12*
D03*
X533400Y-755650D02*
G54D12*
D03*
X355600Y-755650D02*
G54D12*
D03*
X304800Y-755650D02*
G54D12*
D03*
X133320Y-649319D02*
G54D13*
D03*
X133320Y-573119D02*
G54D13*
D03*
X368300Y-476250D02*
G54D14*
D03*
X342900Y-476250D02*
G54D14*
D03*
X317500Y-476250D02*
G54D14*
D03*
X292100Y-476250D02*
G54D14*
D03*
X368300Y-400050D02*
G54D14*
D03*
X342900Y-400050D02*
G54D14*
D03*
X317500Y-400050D02*
G54D14*
D03*
X292100Y-400050D02*
G54D14*
D03*
X463550Y-476250D02*
G54D15*
D03*
X463550Y-371475D02*
G54D16*
D03*
X304800Y-527050D02*
G54D13*
D03*
X381000Y-527050D02*
G54D13*
D03*
X304800Y-692150D02*
G54D17*
D03*
X355600Y-692150D02*
G54D17*
D03*
X330200Y-590550D02*
G54D17*
D03*
X381000Y-590550D02*
G54D17*
D03*
X381000Y-666750D02*
G54D17*
D03*
X381000Y-615950D02*
G54D17*
D03*
X355600Y-615950D02*
G54D17*
D03*
X355600Y-666750D02*
G54D17*
D03*
G36*
X391000Y-562450D02*
X371000Y-562450D01*
X371000Y-542450D01*
X391000Y-542450D01*
X391000Y-562450D01*
G37*
X355600Y-552450D02*
G54D18*
D03*
X330200Y-552450D02*
G54D18*
D03*
X450850Y-546100D02*
G54D17*
D03*
X501650Y-546100D02*
G54D17*
D03*
X495300Y-615950D02*
G54D17*
D03*
X455300Y-615950D02*
G54D17*
D03*
G36*
X746600Y-605950D02*
X746600Y-625950D01*
X726600Y-625950D01*
X726600Y-605950D01*
X746600Y-605950D01*
G37*
X736600Y-641350D02*
G54D18*
D03*
X736600Y-666750D02*
G54D18*
D03*
G36*
X797400Y-605950D02*
X797400Y-625950D01*
X777400Y-625950D01*
X777400Y-605950D01*
X797400Y-605950D01*
G37*
X787400Y-641350D02*
G54D18*
D03*
X787400Y-666750D02*
G54D18*
D03*
G36*
X899000Y-605950D02*
X899000Y-625950D01*
X879000Y-625950D01*
X879000Y-605950D01*
X899000Y-605950D01*
G37*
X889000Y-641350D02*
G54D18*
D03*
X889000Y-666750D02*
G54D18*
D03*
G36*
X949800Y-605950D02*
X949800Y-625950D01*
X929800Y-625950D01*
X929800Y-605950D01*
X949800Y-605950D01*
G37*
X939800Y-641350D02*
G54D18*
D03*
X939800Y-666750D02*
G54D18*
D03*
G36*
X1051400Y-605950D02*
X1051400Y-625950D01*
X1031400Y-625950D01*
X1031400Y-605950D01*
X1051400Y-605950D01*
G37*
X1041400Y-641350D02*
G54D18*
D03*
X1041400Y-666750D02*
G54D18*
D03*
G36*
X1102200Y-605950D02*
X1102200Y-625950D01*
X1082200Y-625950D01*
X1082200Y-605950D01*
X1102200Y-605950D01*
G37*
X1092200Y-641350D02*
G54D18*
D03*
X1092200Y-666750D02*
G54D18*
D03*
X698500Y-692150D02*
G54D13*
D03*
X698500Y-615950D02*
G54D13*
D03*
X812800Y-615950D02*
G54D13*
D03*
X812800Y-692150D02*
G54D13*
D03*
X863600Y-615950D02*
G54D13*
D03*
X863600Y-692150D02*
G54D13*
D03*
X977900Y-615950D02*
G54D13*
D03*
X977900Y-692150D02*
G54D13*
D03*
X1003300Y-615950D02*
G54D13*
D03*
X1003300Y-692150D02*
G54D13*
D03*
X1130300Y-615950D02*
G54D13*
D03*
X1130300Y-692150D02*
G54D13*
D03*
X622300Y-628650D02*
G54D17*
D03*
X622300Y-679450D02*
G54D17*
D03*
X584200Y-628650D02*
G54D17*
D03*
X584200Y-679450D02*
G54D17*
D03*
X838200Y-565150D02*
G54D17*
D03*
X889000Y-565150D02*
G54D17*
D03*
X914400Y-565150D02*
G54D17*
D03*
X965200Y-565150D02*
G54D17*
D03*
X965200Y-514350D02*
G54D13*
D03*
X916800Y-514350D02*
G54D13*
D03*
X1041400Y-565150D02*
G54D17*
D03*
X1092200Y-565150D02*
G54D17*
D03*
X1060450Y-527050D02*
G54D17*
D03*
X1111250Y-527050D02*
G54D17*
D03*
X1295400Y-95250D02*
G54D12*
D03*
X1346200Y-95250D02*
G54D12*
D03*
X1244600Y-95250D02*
G54D12*
D03*
X1143000Y-95250D02*
G54D12*
D03*
X1193800Y-95250D02*
G54D12*
D03*
X1092200Y-95250D02*
G54D12*
D03*
X990600Y-95250D02*
G54D12*
D03*
X1041400Y-95250D02*
G54D12*
D03*
X939800Y-95250D02*
G54D12*
D03*
X838200Y-95250D02*
G54D12*
D03*
X889000Y-95250D02*
G54D12*
D03*
X787400Y-95250D02*
G54D12*
D03*
X533400Y-95250D02*
G54D12*
D03*
X584200Y-95250D02*
G54D12*
D03*
X1346130Y-368380D02*
G54D19*
D03*
X1346130Y-419180D02*
G54D19*
D03*
G36*
X1082200Y-219550D02*
X1082200Y-199550D01*
X1102200Y-199550D01*
X1102200Y-219550D01*
X1082200Y-219550D01*
G37*
X1092200Y-184150D02*
G54D18*
D03*
X1092200Y-158750D02*
G54D18*
D03*
G36*
X1031400Y-219550D02*
X1031400Y-199550D01*
X1051400Y-199550D01*
X1051400Y-219550D01*
X1031400Y-219550D01*
G37*
X1041400Y-184150D02*
G54D18*
D03*
X1041400Y-158750D02*
G54D18*
D03*
G36*
X929800Y-219550D02*
X929800Y-199550D01*
X949800Y-199550D01*
X949800Y-219550D01*
X929800Y-219550D01*
G37*
X939800Y-184150D02*
G54D18*
D03*
X939800Y-158750D02*
G54D18*
D03*
G36*
X879000Y-219550D02*
X879000Y-199550D01*
X899000Y-199550D01*
X899000Y-219550D01*
X879000Y-219550D01*
G37*
X889000Y-184150D02*
G54D18*
D03*
X889000Y-158750D02*
G54D18*
D03*
G36*
X777400Y-219550D02*
X777400Y-199550D01*
X797400Y-199550D01*
X797400Y-219550D01*
X777400Y-219550D01*
G37*
X787400Y-184150D02*
G54D18*
D03*
X787400Y-158750D02*
G54D18*
D03*
X1117600Y-152400D02*
G54D13*
D03*
X1117600Y-228600D02*
G54D13*
D03*
X1143000Y-152400D02*
G54D13*
D03*
X1143000Y-228600D02*
G54D13*
D03*
X1066800Y-152400D02*
G54D13*
D03*
X1066800Y-228600D02*
G54D13*
D03*
X1016000Y-152400D02*
G54D13*
D03*
X1016000Y-228600D02*
G54D13*
D03*
X965200Y-152400D02*
G54D13*
D03*
X965200Y-228600D02*
G54D13*
D03*
X990600Y-152400D02*
G54D13*
D03*
X990600Y-228600D02*
G54D13*
D03*
X914400Y-152400D02*
G54D13*
D03*
X914400Y-228600D02*
G54D13*
D03*
X863600Y-152400D02*
G54D13*
D03*
X863600Y-228600D02*
G54D13*
D03*
X838200Y-152400D02*
G54D13*
D03*
X838200Y-228600D02*
G54D13*
D03*
X812800Y-152400D02*
G54D13*
D03*
X812800Y-228600D02*
G54D13*
D03*
G36*
X536100Y-148750D02*
X556100Y-148750D01*
X556100Y-168750D01*
X536100Y-168750D01*
X536100Y-148750D01*
G37*
X571500Y-158750D02*
G54D18*
D03*
X596900Y-158750D02*
G54D18*
D03*
G36*
X536100Y-174150D02*
X556100Y-174150D01*
X556100Y-194150D01*
X536100Y-194150D01*
X536100Y-174150D01*
G37*
X571500Y-184150D02*
G54D18*
D03*
X596900Y-184150D02*
G54D18*
D03*
G36*
X536100Y-199550D02*
X556100Y-199550D01*
X556100Y-219550D01*
X536100Y-219550D01*
X536100Y-199550D01*
G37*
X571500Y-209550D02*
G54D18*
D03*
X596900Y-209550D02*
G54D18*
D03*
G36*
X536100Y-224950D02*
X556100Y-224950D01*
X556100Y-244950D01*
X536100Y-244950D01*
X536100Y-224950D01*
G37*
X571500Y-234950D02*
G54D18*
D03*
X596900Y-234950D02*
G54D18*
D03*
G36*
X536100Y-250350D02*
X556100Y-250350D01*
X556100Y-270350D01*
X536100Y-270350D01*
X536100Y-250350D01*
G37*
X571500Y-260350D02*
G54D18*
D03*
X596900Y-260350D02*
G54D18*
D03*
X622300Y-158750D02*
G54D13*
D03*
X698500Y-158750D02*
G54D13*
D03*
X622300Y-184150D02*
G54D13*
D03*
X698500Y-184150D02*
G54D13*
D03*
X622300Y-209550D02*
G54D13*
D03*
X698500Y-209550D02*
G54D13*
D03*
X622300Y-234950D02*
G54D13*
D03*
X698500Y-234950D02*
G54D13*
D03*
X622300Y-260350D02*
G54D13*
D03*
X698500Y-260350D02*
G54D13*
D03*
X1143000Y-247650D02*
G54D13*
D03*
X1143000Y-323850D02*
G54D13*
D03*
X1117600Y-279400D02*
G54D17*
D03*
X1117600Y-330200D02*
G54D17*
D03*
X812800Y-336550D02*
G54D17*
D03*
X812800Y-361950D02*
G54D17*
D03*
X787400Y-361950D02*
G54D17*
D03*
X787400Y-336550D02*
G54D17*
D03*
X609600Y-336550D02*
G54D13*
D03*
X660400Y-336550D02*
G54D13*
D03*
X595312Y-384175D02*
G54D20*
D03*
X646112Y-384175D02*
G54D20*
D03*
X596900Y-361950D02*
G54D19*
D03*
X647700Y-361950D02*
G54D19*
D03*
X584200Y-406400D02*
G54D17*
D03*
X635000Y-406400D02*
G54D17*
D03*
X584200Y-431800D02*
G54D17*
D03*
X635000Y-431800D02*
G54D17*
D03*
X584200Y-457200D02*
G54D17*
D03*
X635000Y-457200D02*
G54D17*
D03*
X952500Y-425450D02*
G54D15*
D03*
X847725Y-425450D02*
G54D16*
D03*
X584200Y-476250D02*
G54D13*
D03*
X501650Y-476250D02*
G54D13*
D03*
X889000Y-355600D02*
G54D17*
D03*
X939800Y-355600D02*
G54D17*
D03*
X133320Y-623919D02*
G54D13*
D03*
X635000Y-95250D02*
G54D12*
D03*
X685800Y-95250D02*
G54D12*
D03*
X736600Y-755650D02*
G54D12*
D03*
X685800Y-755650D02*
G54D12*
D03*
X787400Y-495300D02*
G54D21*
D03*
X762000Y-495300D02*
G54D21*
D03*
X736442Y-495342D02*
G54D21*
D03*
X704850Y-450850D02*
G54D17*
D03*
X704850Y-501650D02*
G54D17*
D03*
X679450Y-501650D02*
G54D21*
D03*
X654050Y-501650D02*
G54D21*
D03*
X1098550Y-501650D02*
G54D22*
D03*
X1174750Y-501650D02*
G54D22*
D03*
G36*
X1145700Y-453550D02*
X1165700Y-453550D01*
X1165700Y-473550D01*
X1145700Y-473550D01*
X1145700Y-453550D01*
G37*
X1181100Y-463550D02*
G54D18*
D03*
X1206500Y-463550D02*
G54D18*
D03*
X190088Y-195900D02*
G54D23*
D03*
X399638Y-195900D02*
G54D23*
D03*
X228600Y-279400D02*
G54D24*
D03*
X178600Y-279400D02*
G54D24*
D03*
X128600Y-279400D02*
G54D24*
D03*
X78600Y-279400D02*
G54D24*
D03*
X101600Y-368300D02*
G54D25*
D03*
X196850Y-368300D02*
G54D25*
D03*
X622300Y-501650D02*
G54D17*
D03*
X622300Y-476250D02*
G54D17*
D03*
X1403350Y-260350D02*
G54D26*
D03*
X1403350Y-234950D02*
G54D26*
D03*
X1403350Y-209550D02*
G54D26*
D03*
X1187450Y-260350D02*
G54D26*
D03*
X1187450Y-234950D02*
G54D26*
D03*
X1187450Y-209550D02*
G54D26*
D03*
X1308100Y-260350D02*
G54D26*
D03*
X1308100Y-234950D02*
G54D26*
D03*
X1308100Y-209550D02*
G54D26*
D03*
X1225550Y-158750D02*
G54D17*
D03*
X1174750Y-158750D02*
G54D17*
D03*
X1263650Y-158750D02*
G54D17*
D03*
X1314450Y-158750D02*
G54D17*
D03*
X1346200Y-158750D02*
G54D17*
D03*
X1397000Y-158750D02*
G54D17*
D03*
X1219200Y-285750D02*
G54D13*
D03*
X1219200Y-361950D02*
G54D13*
D03*
X1244600Y-342900D02*
G54D13*
D03*
X1244600Y-266700D02*
G54D13*
D03*
X1184064Y-297250D02*
G54D27*
D03*
X1196763Y-309950D02*
G54D27*
D03*
X1184063Y-322650D02*
G54D27*
D03*
X1279314Y-297249D02*
G54D27*
D03*
X1292014Y-309950D02*
G54D27*
D03*
X1279314Y-322650D02*
G54D27*
D03*
X698500Y-285750D02*
G54D19*
D03*
X622300Y-285750D02*
G54D19*
D03*
X571500Y-285750D02*
G54D19*
D03*
X1320800Y-374650D02*
G54D13*
D03*
X1320800Y-298450D02*
G54D13*
D03*
X1346200Y-342900D02*
G54D13*
D03*
X1346200Y-266700D02*
G54D13*
D03*
X1399964Y-297249D02*
G54D27*
D03*
X1412664Y-309950D02*
G54D27*
D03*
X1399964Y-322650D02*
G54D27*
D03*
X1371600Y-374650D02*
G54D13*
D03*
X1371600Y-298450D02*
G54D13*
D03*
X1416050Y-419100D02*
G54D13*
D03*
X1416050Y-342900D02*
G54D13*
D03*
X1174750Y-603250D02*
G54D26*
D03*
X1174750Y-628650D02*
G54D26*
D03*
X1174750Y-654050D02*
G54D26*
D03*
X1397000Y-603250D02*
G54D26*
D03*
X1397000Y-628650D02*
G54D26*
D03*
X1397000Y-654050D02*
G54D26*
D03*
X1308100Y-603250D02*
G54D26*
D03*
X1308100Y-628650D02*
G54D26*
D03*
X1308100Y-654050D02*
G54D26*
D03*
X1212850Y-692150D02*
G54D17*
D03*
X1162050Y-692150D02*
G54D17*
D03*
X1250950Y-692150D02*
G54D17*
D03*
X1301750Y-692150D02*
G54D17*
D03*
X1346200Y-692150D02*
G54D17*
D03*
X1397000Y-692150D02*
G54D17*
D03*
X1174750Y-558800D02*
G54D27*
D03*
X1162050Y-546100D02*
G54D27*
D03*
X1174750Y-533400D02*
G54D27*
D03*
X1314450Y-558800D02*
G54D27*
D03*
X1301750Y-546100D02*
G54D27*
D03*
X1314450Y-533400D02*
G54D27*
D03*
X1409700Y-558800D02*
G54D27*
D03*
X1397000Y-546100D02*
G54D27*
D03*
X1409700Y-533400D02*
G54D27*
D03*
X1206500Y-565150D02*
G54D13*
D03*
X1206500Y-488950D02*
G54D13*
D03*
X1358900Y-565150D02*
G54D13*
D03*
X1358900Y-488950D02*
G54D13*
D03*
X1130300Y-476250D02*
G54D13*
D03*
X1130300Y-400050D02*
G54D13*
D03*
X1238250Y-565150D02*
G54D13*
D03*
X1238250Y-488950D02*
G54D13*
D03*
X1270000Y-565150D02*
G54D13*
D03*
X1270000Y-488950D02*
G54D13*
D03*
X1365250Y-444500D02*
G54D13*
D03*
X1289050Y-444500D02*
G54D13*
D03*
X469900Y-285750D02*
G54D19*
D03*
X1408130Y-455675D02*
G54D17*
D03*
X1408130Y-506475D02*
G54D17*
D03*
X406400Y-279400D02*
G54D19*
D03*
X444500Y-279400D02*
G54D19*
D03*
X425450Y-298450D02*
G54D19*
D03*
X222250Y-304800D02*
G54D19*
D03*
X317500Y-304800D02*
G54D19*
D03*
X323850Y-260350D02*
G54D17*
D03*
X374650Y-260350D02*
G54D17*
D03*
X539750Y-336550D02*
G54D13*
D03*
X539750Y-412750D02*
G54D13*
D03*
M02*
