; Drill file
; Format: 2.4 (00.0000)
M48
INCH
T01C0.0197
T02C0.0236
T03C0.0283
T04C0.0315
T05C0.0319
T06C0.032
T07C0.0323
T08C0.0394
T09C0.0402
T10C0.0449
T11C0.045
T12C0.0472
T13C0.1378
%
G05
G90
T01
X045750Y-021500
X046250Y-022000
X046250Y-021000
X051250Y-021500
X051750Y-022000
X051750Y-021000
X055000Y-021500
X055500Y-022000
X055500Y-021000
X055120Y-012700
X055620Y-012200
X055120Y-011700
X050870Y-012200
X050370Y-012700
X050370Y-011700
X047120Y-012200
X046620Y-011700
X046620Y-012700
T02
X005250Y-025560
X005250Y-024560
X005250Y-022560
X012000Y-020750
X013000Y-023250
X014000Y-024250
X015000Y-024250
X015000Y-023250
X015000Y-020750
X017750Y-021500
X019750Y-021500
X019750Y-018750
X021250Y-016250
X023000Y-016000
X023440Y-015120
X023500Y-014250
X024000Y-013250
X025500Y-014250
X025440Y-015120
X025000Y-016000
X025000Y-017000
X025000Y-018000
X024500Y-018750
X024500Y-019750
X023000Y-018750
X023000Y-018000
X023000Y-017000
X021250Y-013250
X022500Y-011250
X024500Y-011250
X024500Y-010250
X024500Y-009250
X024500Y-008250
X024500Y-007250
X024500Y-006250
X027500Y-006250
X027500Y-007250
X027500Y-008250
X027500Y-009250
X027500Y-010250
X027500Y-011250
X026000Y-013250
X027750Y-017750
X027750Y-019750
X027500Y-024250
X027500Y-027250
X024500Y-026750
X023000Y-026750
X023000Y-024750
X024500Y-024750
X019500Y-024250
X017930Y-024250
X015000Y-026250
X014000Y-026250
X014000Y-027250
X012000Y-027250
X012500Y-012000
X012750Y-010250
X014750Y-010250
X016000Y-011000
X016750Y-011750
X017500Y-011000
X018500Y-011250
X008750Y-012000
X031000Y-013250
X032000Y-013250
X032000Y-014250
X031000Y-014250
X035000Y-014000
X037000Y-014000
X038000Y-009000
X039000Y-009000
X040000Y-009000
X042000Y-009000
X044000Y-009000
X045000Y-009000
X045000Y-009750
X044000Y-011000
X044000Y-013000
X045000Y-012750
X044500Y-015750
X044500Y-018750
X043250Y-019750
X043750Y-020750
X043000Y-022250
X041750Y-020750
X041000Y-022250
X039500Y-024250
X038500Y-024250
X038000Y-022250
X036000Y-022250
X035000Y-022250
X033000Y-022250
X032000Y-024250
X034000Y-024250
X034000Y-027250
X032000Y-027250
X038500Y-027250
X039500Y-027250
X044500Y-027250
X045750Y-027250
X047750Y-027250
X049250Y-027250
X051250Y-027250
X053000Y-027250
X055000Y-027250
X053500Y-022250
X053500Y-019250
X053750Y-017500
X053000Y-016500
X053000Y-014500
X053000Y-013500
X052000Y-014750
X054000Y-014750
X055750Y-013500
X054000Y-011750
X053000Y-010500
X052000Y-011750
X049000Y-010500
X048000Y-011250
X049000Y-013500
X048000Y-014250
X050750Y-017500
X050000Y-019250
X048750Y-019250
X047500Y-019250
X046250Y-019750
X047500Y-022250
X048750Y-022250
X050000Y-022250
X044500Y-024250
X038000Y-020250
X036090Y-020250
X036000Y-009000
X034000Y-009000
X033000Y-009000
X032000Y-009000
X032000Y-006000
X033000Y-006000
X034000Y-006000
X036000Y-006000
X038000Y-006000
X039000Y-006000
X040000Y-006000
X042000Y-006000
X044000Y-006000
X045000Y-006000
X046250Y-006250
X048250Y-006250
X049750Y-006250
X051750Y-006250
X053000Y-006250
X055000Y-006250
X055750Y-016500
X055440Y-017940
X055440Y-019940
T03
X029000Y-018250
X030000Y-018250
X031000Y-018250
X032000Y-018250
X033000Y-018250
X034000Y-018250
X035000Y-018250
X036000Y-018250
X037000Y-018250
X038000Y-018250
X039000Y-018250
X040000Y-018250
X041000Y-018250
X042000Y-018250
X042000Y-015250
X041000Y-015250
X040000Y-015250
X039000Y-015250
X038000Y-015250
X037000Y-015250
X036000Y-015250
X035000Y-015250
X034000Y-015250
X033000Y-015250
X032000Y-015250
X031000Y-015250
X030000Y-015250
X029000Y-015250
T04
X004000Y-014500
X007750Y-014500
T05
X011500Y-018750
X012500Y-018750
X013500Y-018750
X014500Y-018750
X014500Y-015750
X013500Y-015750
X012500Y-015750
X011500Y-015750
T06
X018250Y-018750
X037500Y-016750
T07
X018250Y-014620
X033370Y-016750
T08
X013000Y-021750
X014000Y-021750
X015000Y-021750
X021500Y-010250
X022500Y-010250
X022500Y-009250
X021500Y-009250
X021500Y-008250
X022500Y-008250
X022500Y-007250
X023500Y-007250
X023500Y-006250
X022500Y-006250
X021500Y-006250
X021500Y-007250
X023500Y-008250
X023500Y-009250
X023500Y-010250
X031000Y-008250
X031000Y-007250
X031000Y-006250
X035000Y-006250
X035000Y-007250
X035000Y-008250
X037000Y-008250
X037000Y-007250
X037000Y-006250
X041000Y-006250
X041000Y-007250
X041000Y-008250
X043000Y-008250
X043000Y-007250
X043000Y-006250
X045500Y-018250
X046500Y-018250
X047500Y-018250
X043000Y-024250
X043000Y-025250
X043000Y-026250
X041000Y-026250
X041000Y-025250
X041000Y-024250
X037000Y-024250
X037000Y-025250
X037000Y-026250
X035000Y-026250
X035000Y-025250
X035000Y-024250
X031000Y-024250
X031000Y-025250
X031000Y-026250
X029000Y-026250
X029000Y-025250
X029000Y-024250
T09
X025750Y-019750
X026750Y-019750
X028990Y-019500
X030000Y-019500
X031000Y-019500
T10
X046250Y-025750
X046250Y-024750
X046250Y-023750
X051500Y-023750
X051500Y-024750
X051500Y-025750
X055000Y-025750
X055000Y-024750
X055000Y-023750
X055250Y-010250
X055250Y-009250
X055250Y-008250
X051500Y-008250
X051500Y-009250
X051500Y-010250
X046750Y-010250
X046750Y-009250
X046750Y-008250
T11
X006500Y-029750
X008500Y-029750
X012000Y-029750
X014000Y-029750
X021000Y-029750
X023000Y-029750
X027000Y-029750
X029000Y-029750
X031000Y-029750
X033000Y-029750
X035000Y-029750
X037000Y-029750
X039000Y-029750
X041000Y-029750
X043000Y-029750
X045000Y-029750
X047000Y-029750
X049000Y-029750
X051000Y-029750
X053000Y-029750
X053000Y-003750
X051000Y-003750
X049000Y-003750
X047000Y-003750
X045000Y-003750
X043000Y-003750
X041000Y-003750
X039000Y-003750
X037000Y-003750
X035000Y-003750
X033000Y-003750
X031000Y-003750
X027000Y-003750
X025000Y-003750
X023000Y-003750
X021000Y-003750
X014000Y-003750
X012000Y-003750
X008500Y-003750
X006500Y-003750
T12
X004000Y-019750
X004000Y-013000
X003090Y-011000
X005060Y-011000
X007030Y-011000
X009000Y-011000
X007480Y-007710
X015730Y-007710
X019750Y-013000
X019750Y-019750
T13
X003500Y-029250
X003500Y-004250
X055500Y-004250
X055500Y-029250
M30
